<!DOCTYPE svg PUBLIC "-//W3C//DTD SVG 20010904//EN" "http://www.w3.org/TR/2001/REC-SVG-20010904/DTD/svg10.dtd">
<svg version="1.0" xmlns="http://www.w3.org/2000/svg" width="720px" height="576px" viewBox="0 0 7200 5760" preserveAspectRatio="xMidYMid meet">
<g id="layer101" fill="#ffffff" stroke="none">
 <path d="M2135 4130 c-82 -4 -168 -8 -191 -9 -22 0 -48 -7 -57 -14 -16 -11 2 -37 173 -252 104 -132 204 -250 222 -262 17 -13 44 -23 61 -23 29 0 97 34 97 49 0 5 10 19 23 32 12 14 50 61 85 104 69 87 75 95 187 233 41 52 75 100 75 108 0 7 -10 16 -22 18 -78 16 -463 26 -653 16z"/>
 <path d="M2964 4078 c-25 -29 -85 -124 -156 -248 -177 -311 -266 -580 -239 -725 17 -91 83 -158 246 -247 182 -99 433 -199 468 -185 23 9 27 55 34 392 7 427 -19 770 -66 863 -27 53 -119 135 -167 149 -87 25 -99 25 -120 1z"/>
 <path d="M1630 4083 c-101 -38 -178 -111 -205 -193 -22 -68 -44 -313 -47 -525 l-3 -190 65 0 65 0 5 90 5 90 113 3 112 3 0 -111 0 -110 -92 0 c-51 0 -98 -4 -105 -8 -7 -5 -13 -39 -15 -87 l-3 -80 -72 -3 -73 -3 0 -128 c0 -175 -3 -173 131 -128 208 70 425 180 520 265 66 59 89 111 89 198 -1 74 -30 214 -50 239 -9 11 -39 15 -118 17 l-107 3 -3 85 c-4 126 -3 130 63 130 45 0 55 3 55 17 0 23 -119 241 -188 343 -52 78 -60 85 -92 87 -19 1 -42 -1 -50 -4z m30 -368 l0 -76 -72 3 -73 3 -3 64 c-2 45 1 67 10 72 7 5 41 9 76 9 l62 0 0 -75z m328 -573 c4 -52 -10 -72 -50 -72 -51 0 -68 16 -68 64 0 23 3 46 7 50 4 4 30 6 58 4 l50 -3 3 -43z"/>
 <path d="M3837 3763 c-4 -3 -7 -42 -7 -85 l0 -78 41 0 c51 0 77 14 90 48 17 45 3 88 -35 106 -35 17 -78 21 -89 9z m87 -39 c19 -19 21 -68 4 -82 -22 -16 -60 -25 -67 -14 -3 6 -4 33 -3 61 4 46 6 51 27 51 13 0 31 -7 39 -16z"/>
 <path d="M4070 3685 c0 -65 3 -86 13 -83 8 3 12 29 12 83 0 54 -4 80 -12 82 -10 4 -13 -17 -13 -82z"/>
 <path d="M4233 3758 c-49 -24 -54 -114 -8 -144 28 -18 96 -15 103 4 3 10 -4 12 -31 7 -28 -6 -39 -3 -56 14 -40 40 -18 101 38 101 24 0 31 -4 31 -20 0 -11 -7 -20 -15 -20 -8 0 -15 -4 -15 -10 0 -5 14 -10 30 -10 28 0 30 3 30 35 0 50 -50 71 -107 43z"/>
 <path d="M4444 3757 c-10 -27 1 -150 14 -155 9 -3 12 17 12 77 0 74 -13 112 -26 78z"/>
 <path d="M4615 3758 c-2 -7 -6 -40 -7 -73 -2 -39 -7 -60 -15 -61 -30 -3 -33 -4 -33 -14 0 -12 127 -13 134 -1 3 5 -8 11 -24 15 -30 5 -30 6 -30 70 0 60 -14 95 -25 64z"/>
 <path d="M4770 3758 c0 -7 12 -46 26 -86 20 -52 31 -72 43 -70 14 3 69 124 70 156 1 20 -20 14 -26 -8 -4 -16 -14 -20 -43 -20 -30 0 -40 5 -45 20 -7 22 -25 27 -25 8z"/>
 <path d="M5007 3764 c-4 -4 -7 -43 -7 -86 0 -63 3 -78 15 -78 12 0 15 14 15 69 l0 70 38 3 c20 2 37 8 37 13 0 12 -87 19 -98 9z"/>
 <path d="M995 3730 c-8 -13 -8 -237 0 -250 4 -6 59 -10 130 -10 l123 0 4 108 c6 167 14 156 -129 160 -76 2 -124 -1 -128 -8z"/>
 <path d="M664 3597 c-3 -8 -4 -54 -2 -103 l3 -89 100 0 100 0 3 94 c2 69 -1 97 -10 103 -23 14 -188 10 -194 -5z"/>
 <path d="M5340 3403 c-14 -2 -40 -9 -57 -14 -30 -9 -33 -14 -33 -48 0 -21 3 -40 6 -43 3 -4 22 1 42 9 46 20 147 22 187 5 17 -7 38 -24 48 -37 17 -23 40 -115 31 -124 -2 -3 -14 5 -27 16 -56 52 -177 55 -249 8 -29 -19 -48 -44 -70 -91 -28 -61 -30 -71 -26 -157 3 -78 8 -100 33 -146 35 -64 87 -101 149 -108 60 -7 107 3 149 31 37 26 47 24 47 -6 0 -15 8 -18 45 -18 l45 0 0 270 c0 248 -2 274 -21 324 -25 68 -73 111 -141 126 -48 10 -109 11 -158 3z m176 -315 c27 -26 36 -46 43 -88 9 -59 2 -143 -16 -175 -49 -89 -166 -96 -226 -14 -40 56 -34 217 10 270 34 40 58 50 112 45 33 -3 51 -12 77 -38z"/>
 <path d="M894 3317 c-2 -7 -3 -76 -2 -152 l3 -140 150 0 150 0 0 150 0 150 -148 3 c-115 2 -149 0 -153 -11z"/>
 <path d="M6252 3216 c-76 -19 -131 -61 -164 -125 -25 -47 -28 -64 -28 -142 0 -100 20 -157 71 -209 90 -89 255 -95 342 -12 41 38 58 75 68 148 14 99 25 94 -192 94 l-189 0 0 28 c0 36 46 107 79 122 60 27 147 22 269 -16 22 -6 23 -5 20 37 -3 43 -3 43 -59 60 -82 25 -156 30 -217 15z m198 -341 c0 -34 -40 -92 -72 -106 -92 -38 -191 6 -214 95 l-6 26 146 0 c125 0 146 -2 146 -15z"/>
 <path d="M3960 2905 l0 -305 -120 0 -120 0 0 -45 0 -45 296 0 295 0 -3 43 -3 42 -117 3 c-84 2 -118 6 -119 15 0 7 0 136 1 287 1 151 -2 283 -5 293 -6 13 -19 17 -56 17 l-49 0 0 -305z"/>
 <path d="M4360 2945 l0 -265 45 0 45 0 0 265 0 265 -45 0 -45 0 0 -265z"/>
 <path d="M4620 2945 l0 -265 45 0 c43 0 45 1 45 30 0 17 3 30 6 30 4 0 21 -13 40 -30 57 -50 172 -55 232 -10 63 46 71 82 74 305 l3 200 -47 3 -48 3 0 -168 c0 -241 -16 -283 -110 -283 -63 0 -89 13 -120 57 -24 35 -25 44 -28 215 l-4 178 -44 0 -44 0 0 -265z"/>
 <path d="M5830 2845 l0 -366 46 3 45 3 0 360 0 360 -45 3 -46 3 0 -366z"/>
 <path d="M1101 2896 c-7 -9 -11 -37 -9 -72 3 -56 4 -58 35 -65 17 -3 49 -3 70 0 l38 6 0 70 0 70 -61 3 c-44 2 -64 -1 -73 -12z"/>
 <path d="M2168 2844 c-89 -28 -211 -90 -320 -161 -142 -93 -378 -294 -378 -322 0 -25 68 -87 121 -110 132 -58 763 -83 1212 -47 191 15 263 28 322 58 33 17 95 81 95 98 0 17 -95 106 -222 206 -167 133 -354 240 -492 283 -98 30 -235 29 -338 -5z m234 -127 c78 -40 113 -156 79 -260 -14 -41 -68 -93 -107 -103 -57 -15 -125 24 -162 91 -25 46 -22 160 7 207 42 69 122 97 183 65z"/>
 <path d="M4360 2540 l0 -60 45 0 45 0 0 60 0 60 -45 0 -45 0 0 -60z"/>
 </g>

</svg>